<?xml version="1.0" encoding="UTF-8"?><svg width="126" height="40" viewBox="0 0 126 40" fill="none" xmlns="http://www.w3.org/2000/svg"><path d="M8.66493 11.1978V14.0178H2.93889V36.6324H0.0965726V11.1978H8.66493Z" fill="#F2F1ED"/><path d="M18.613 10.9788C19.3305 10.9788 19.9376 11.0883 20.4481 11.2936C20.9586 11.499 21.3588 11.7865 21.6623 12.1424C21.9659 12.4983 22.2004 12.909 22.3522 13.3881C22.504 13.8672 22.573 14.3737 22.573 14.9076V32.9364C22.573 33.4702 22.504 33.9767 22.3522 34.4559C22.2004 34.935 21.9797 35.3457 21.6623 35.7016C21.3588 36.0575 20.9448 36.3313 20.4481 36.5503C19.9376 36.7556 19.3305 36.8652 18.613 36.8652H16.433C15.7155 36.8652 15.1084 36.7556 14.5979 36.5503C14.0874 36.345 13.6873 36.0575 13.3837 35.7016C13.0802 35.3457 12.8456 34.935 12.6938 34.4559C12.5421 33.9767 12.4731 33.4702 12.4731 32.9364V14.9076C12.4731 14.3737 12.5421 13.8672 12.6938 13.3881C12.8456 12.909 13.0664 12.4983 13.3837 12.1424C13.6873 11.7865 14.1012 11.5127 14.5979 11.2936C15.1084 11.0883 15.7155 10.9788 16.433 10.9788H18.613ZM18.613 34.0315C19.0132 34.0315 19.2891 33.922 19.4685 33.7029C19.6341 33.4839 19.7306 33.2238 19.7306 32.9364V14.9076C19.7306 14.6201 19.6479 14.36 19.4685 14.141C19.3029 13.922 19.0132 13.8125 18.613 13.8125H16.433C16.0191 13.8125 15.7293 13.922 15.5638 14.141C15.3982 14.36 15.3292 14.6201 15.3292 14.9076V32.9364C15.3292 33.2238 15.412 33.4839 15.5638 33.7029C15.7293 33.922 16.0191 34.0315 16.433 34.0315H18.613Z" fill="#F2F1ED"/><path d="M36.8949 24.6407C36.8949 25.3525 36.7845 25.9548 36.5776 26.4613C36.3706 26.9678 36.0809 27.3648 35.7083 27.666C35.3358 27.9671 34.9081 28.1999 34.4389 28.3504C33.956 28.501 33.4455 28.5695 32.9074 28.5695H30.2858V36.6324H27.4435V11.1978H32.9074C33.6249 11.1978 34.232 11.3073 34.7425 11.5127C35.253 11.718 35.6669 12.0055 35.9843 12.3614C36.3016 12.7173 36.5362 13.128 36.688 13.6071C36.8397 14.0862 36.9087 14.5927 36.9087 15.1266V24.6543L36.8949 24.6407ZM34.0112 15.1129C34.0112 14.8255 33.9284 14.5654 33.7767 14.3463C33.6111 14.1273 33.3213 14.0178 32.9074 14.0178H30.2858V25.7495H32.9074C33.2247 25.7495 33.4869 25.6673 33.7077 25.5168C33.9284 25.3662 34.025 25.065 34.025 24.6543V15.1266L34.0112 15.1129Z" fill="#F2F1ED"/><path d="M47.5329 10.9788C48.2504 10.9788 48.8575 11.0883 49.368 11.2936C49.8785 11.499 50.2786 11.7865 50.5822 12.1424C50.8857 12.4983 51.1203 12.909 51.2721 13.3881C51.4238 13.8672 51.4928 14.3737 51.4928 14.9076V32.9364C51.4928 33.4702 51.4238 33.9767 51.2721 34.4559C51.1203 34.935 50.8995 35.3457 50.5822 35.7016C50.2786 36.0575 49.8647 36.3313 49.368 36.5503C48.8575 36.7556 48.2504 36.8652 47.5329 36.8652H45.3529C44.6354 36.8652 44.0283 36.7556 43.5178 36.5503C43.0073 36.345 42.6071 36.0575 42.3036 35.7016C42 35.3457 41.7655 34.935 41.6137 34.4559C41.4619 33.9767 41.393 33.4702 41.393 32.9364V14.9076C41.393 14.3737 41.4619 13.8672 41.6137 13.3881C41.7655 12.909 41.9862 12.4983 42.3036 12.1424C42.6071 11.7865 43.0211 11.5127 43.5178 11.2936C44.0283 11.0883 44.6354 10.9788 45.3529 10.9788H47.5329ZM47.5329 34.0315C47.933 34.0315 48.209 33.922 48.3884 33.7029C48.5539 33.4839 48.6505 33.2238 48.6505 32.9364V14.9076C48.6505 14.6201 48.5677 14.36 48.3884 14.141C48.2228 13.922 47.933 13.8125 47.5329 13.8125H45.3529C44.939 13.8125 44.6492 13.922 44.4836 14.141C44.3181 14.36 44.2491 14.6201 44.2491 14.9076V32.9364C44.2491 33.2238 44.3319 33.4839 44.4836 33.7029C44.6492 33.922 44.939 34.0315 45.3529 34.0315H47.5329Z" fill="#F2F1ED"/><path d="M68.4088 33.8125V40H66.4495L65.8976 36.6324H57.0671L56.8049 40H54.5145V33.8125H56.184C56.7083 33.4702 56.9705 32.909 56.9981 32.1287L57.8536 11.1978H66.4633V33.8125H68.4225H68.4088ZM63.6072 33.8125V14.0178H60.5717L59.799 32.2382C59.7438 32.8679 59.5507 33.4018 59.2057 33.8125H63.6072Z" fill="#F2F1ED"/><path d="M78.895 25.7495H81.7373V32.9364C81.7373 33.4702 81.6683 33.9767 81.5165 34.4559C81.3648 34.935 81.144 35.3457 80.8267 35.7016C80.5231 36.0575 80.1092 36.3313 79.6125 36.5503C79.102 36.7556 78.4948 36.8652 77.7774 36.8652H75.6387C74.9213 36.8652 74.3142 36.7556 73.8037 36.5503C73.2932 36.345 72.893 36.0575 72.5895 35.7016C72.2859 35.3457 72.0514 34.935 71.8996 34.4559C71.7478 33.9767 71.6788 33.4702 71.6788 32.9364V14.9076C71.6788 14.3737 71.7478 13.8672 71.8996 13.3881C72.0514 12.909 72.2721 12.4983 72.5895 12.1424C72.893 11.7865 73.3069 11.5127 73.8037 11.2936C74.3142 11.0883 74.9213 10.9788 75.6387 10.9788H77.7774C78.4948 10.9788 79.102 11.0883 79.6125 11.2936C80.123 11.499 80.5231 11.7865 80.8267 12.1424C81.1302 12.4983 81.3648 12.909 81.5165 13.3881C81.6683 13.8672 81.7373 14.3737 81.7373 14.9076V19.822H78.895V14.9076C78.895 14.6201 78.8122 14.36 78.6328 14.141C78.4535 13.922 78.1775 13.8125 77.7774 13.8125H75.6387C75.2386 13.8125 74.9627 13.922 74.7833 14.141C74.6177 14.36 74.5211 14.6201 74.5211 14.9076V32.9364C74.5211 33.2238 74.6039 33.4839 74.7833 33.7029C74.9489 33.922 75.2386 34.0315 75.6387 34.0315H77.7774C78.1775 34.0315 78.4535 33.922 78.6328 33.7029C78.7984 33.4839 78.895 33.2238 78.895 32.9364V25.7495Z" fill="#F2F1ED"/><path d="M86.6217 11.1978H89.464V19.5209H91.9062L94.7071 11.1978H97.7426L94.5277 20.7255L97.9633 36.6324H95.0382L91.8648 21.9028H89.464V36.6324H86.6217V11.1978Z" fill="#F2F1ED"/><path d="M108.974 36.6324V20.4654L104.766 24.6817V36.6324H101.923V11.1978H104.766V21.2731L108.974 16.9062V11.1841H111.816V36.6188H108.974V36.6324Z" fill="#F2F1ED"/><path d="M125.517 11.1978V14.0178H119.833V19.2608H124.124V22.1218H119.833V33.8125H125.517V36.6324H116.99V11.1978H125.517Z" fill="#F2F1ED"/><path d="M16.2674 0H0V2.81999H16.2674V0Z" fill="#F2F1ED"/></svg>
